<svg xmlns="http://www.w3.org/2000/svg" viewBox="0 0 48 48" fill="none">
  <path d="M6 6 C 6 4, 8 2, 10 2 L 38 2 C 40 2, 42 4, 42 6 L 42 44 C 42 46, 40 48, 38 48 L 10 48 C 8 48, 6 46, 6 44 Z" fill="#F7F3EE" stroke="#1F1B16" stroke-width="1.8"></path>
  <line x1="24" y1="2" x2="24" y2="48" stroke="#1F1B16" stroke-opacity="0.35" stroke-width="1"></line>
  <path d="M11 30 L 16 14 L 21 30 M 12.5 24 L 19.5 24" stroke="#1F1B16" stroke-width="1.8" stroke-linecap="round" stroke-linejoin="round" fill="none"></path>
  <path d="M28 30 C 28 22, 32 18, 36 18 C 39.5 18, 38 28, 32 30 C 28 31, 27 26, 30 24" stroke="#C97B4E" stroke-width="2" stroke-linecap="round" fill="none"></path>
  <circle cx="36" cy="18" r="1.6" fill="#C97B4E"></circle>
</svg>