<svg xmlns="http://www.w3.org/2000/svg" viewBox="0 0 48 48" fill="none">
  <path d="M6 6 C 6 4, 8 2, 10 2 L 38 2 C 40 2, 42 4, 42 6 L 42 44 C 42 46, 40 48, 38 48 L 10 48 C 8 48, 6 46, 6 44 Z" fill="#F7F3EE" stroke="#1F1B16" stroke-width="1.8"></path>
  <line x1="24" y1="2" x2="24" y2="48" stroke="#1F1B16" stroke-opacity="0.35" stroke-width="1"></line>
  <path d="M16 14 L 16 30 M 12.5 14 L 19.5 14 M 12.5 30 L 19.5 30" stroke="#1F1B16" stroke-width="1.8" stroke-linecap="round" stroke-linejoin="round" fill="none"></path>
  <path d="M36 17 C 35 15, 33 14, 31.5 14 C 29 14, 28 15.5, 28 17.5 C 28 20, 30.5 21, 32 22 C 33.5 23, 36 24, 36 26.5 C 36 28.5, 34.5 30, 32 30 C 30 30, 28.5 29, 28 27" stroke="#C97B4E" stroke-width="2" stroke-linecap="round" fill="none"></path>
  
</svg>